<svg width="1024" height="1024" viewBox="0 0 1024 1024" fill="none" xmlns="http://www.w3.org/2000/svg">
<path d="M919.296 685.248C907.294 697.246 891.019 703.986 874.048 703.986C857.078 703.986 840.802 697.246 828.8 685.248L512 368.448L195.2 685.248C183.13 696.906 166.963 703.357 150.182 703.211C133.402 703.065 117.35 696.335 105.484 684.468C93.6175 672.602 86.8868 656.55 86.741 639.77C86.5951 622.989 93.046 606.823 104.704 594.752L466.752 232.704C478.754 220.706 495.03 213.966 512 213.966C528.971 213.966 545.246 220.706 557.248 232.704L919.296 594.752C931.294 606.754 938.034 623.029 938.034 640C938.034 656.971 931.294 673.246 919.296 685.248V685.248Z" fill="#C2C4C7"/>
</svg>
