<?xml version="1.0" standalone="no"?>
<!DOCTYPE svg PUBLIC "-//W3C//DTD SVG 20010904//EN"
 "http://www.w3.org/TR/2001/REC-SVG-20010904/DTD/svg10.dtd">
<svg version="1.0" xmlns="http://www.w3.org/2000/svg"
 width="700.000000pt" height="700.000000pt" viewBox="0 0 700.000000 700.000000"
 preserveAspectRatio="xMidYMid meet">
<metadata>
Created by potrace 1.14, written by Peter Selinger 2001-2017
</metadata>
<g transform="translate(0.000000,700.000000) scale(0.100000,-0.100000)"
fill="#000000" stroke="none">
<path d="M1015 6705 c-87 -19 -151 -42 -230 -82 -106 -54 -152 -88 -245 -183
-118 -120 -191 -249 -237 -420 -17 -61 -18 -205 -18 -2520 0 -2377 1 -2457 19
-2525 98 -362 390 -629 748 -685 53 -8 720 -10 2493 -8 2274 3 2424 4 2480 21
367 107 621 382 684 741 15 83 15 4829 0 4912 -63 359 -317 634 -684 741 -56
17 -205 18 -2505 20 -2000 1 -2456 -1 -2505 -12z m213 -1608 c36 -23 128 -168
956 -1499 34 -54 64 -98 67 -98 4 0 231 343 505 762 275 420 512 778 528 796
61 70 137 81 221 33 107 -62 147 -130 121 -212 -7 -26 -256 -416 -594 -936
l-582 -891 0 -519 c0 -518 0 -519 -22 -563 -34 -66 -74 -85 -179 -85 -74 0
-90 3 -121 25 -76 51 -72 22 -78 620 l-5 535 -546 870 c-300 479 -552 881
-559 895 -39 73 -29 149 27 211 80 88 181 110 261 56z m4133 22 c335 -34 561
-177 684 -433 64 -134 94 -307 95 -539 0 -335 -68 -557 -221 -721 -110 -118
-230 -185 -409 -229 -80 -19 -121 -20 -642 -24 l-558 -4 0 -578 0 -577 -22
-44 c-34 -67 -89 -93 -189 -87 -87 4 -132 26 -164 79 -20 33 -20 53 -23 1523
-3 1627 -6 1540 53 1595 49 46 81 49 706 49 344 1 630 -3 690 -10z"/>
<path d="M4310 4150 l0 -571 548 3 c535 3 548 4 613 26 123 41 193 112 232
236 20 65 22 91 22 301 0 209 -2 236 -22 300 -42 134 -109 203 -243 247 -63
22 -80 23 -607 26 l-543 3 0 -571z"/>
</g>
</svg>
