<svg width="24" height="25" viewBox="0 0 24 25" fill="none" xmlns="http://www.w3.org/2000/svg">
<g clip-path="url(#clip0_457_1036)">
<path opacity="0.3" d="M12 10.5C13.1046 10.5 14 9.60457 14 8.5C14 7.39543 13.1046 6.5 12 6.5C10.8954 6.5 10 7.39543 10 8.5C10 9.60457 10.8954 10.5 12 10.5Z" fill="white"/>
<path opacity="0.3" d="M12 15.5C9.3 15.5 6.2 16.79 6 17.51V18.5H18V17.5C17.8 16.79 14.7 15.5 12 15.5Z" fill="white" fill-opacity="0.42"/>
<path d="M12 12.5C14.21 12.5 16 10.71 16 8.5C16 6.29 14.21 4.5 12 4.5C9.79 4.5 8 6.29 8 8.5C8 10.71 9.79 12.5 12 12.5ZM12 6.5C13.1 6.5 14 7.4 14 8.5C14 9.6 13.1 10.5 12 10.5C10.9 10.5 10 9.6 10 8.5C10 7.4 10.9 6.5 12 6.5ZM12 13.5C9.33 13.5 4 14.84 4 17.5V20.5H20V17.5C20 14.84 14.67 13.5 12 13.5ZM18 18.5H6V17.51C6.2 16.79 9.3 15.5 12 15.5C14.7 15.5 17.8 16.79 18 17.5V18.5Z" fill="white" fill-opacity="0.42"/>
</g>
<defs>
<clipPath id="clip0_457_1036">
<rect width="24" height="24" fill="white" transform="translate(0 0.5)"/>
</clipPath>
</defs>
</svg>
