<svg width="24" height="25" viewBox="0 0 24 25" fill="none" xmlns="http://www.w3.org/2000/svg">
<g clip-path="url(#clip0_457_1012)">
<path opacity="0.3" d="M12 4.5C7.59 4.5 4 8.09 4 12.5C4 16.91 7.59 20.5 12 20.5C16.41 20.5 20 16.91 20 12.5C20 8.09 16.41 4.5 12 4.5ZM14.01 14.51L6.5 18L9.99 10.49L17.5 7L14.01 14.51Z" fill="white" fill-opacity="0.42"/>
<path d="M12 2.5C6.48 2.5 2 6.98 2 12.5C2 18.02 6.48 22.5 12 22.5C17.52 22.5 22 18.02 22 12.5C22 6.98 17.52 2.5 12 2.5ZM12 20.5C7.59 20.5 4 16.91 4 12.5C4 8.09 7.59 4.5 12 4.5C16.41 4.5 20 8.09 20 12.5C20 16.91 16.41 20.5 12 20.5ZM6.5 18L14.01 14.51L17.5 7L9.99 10.49L6.5 18ZM12 11.4C12.61 11.4 13.1 11.89 13.1 12.5C13.1 13.11 12.61 13.6 12 13.6C11.39 13.6 10.9 13.11 10.9 12.5C10.9 11.89 11.39 11.4 12 11.4Z" fill="white" fill-opacity="1"/>
</g>
<defs>
<clipPath id="clip0_457_1012">
<rect width="24" height="24" fill="white" transform="translate(0 0.5)"/>
</clipPath>
</defs>
</svg>
