<svg width="24" height="25" viewBox="0 0 24 25" fill="none" xmlns="http://www.w3.org/2000/svg">
<g clip-path="url(#clip0_457_1018)">
<path opacity="0.3" d="M4 19.5H20V8.5H4V19.5ZM9 9.5L16.5 13.5L9 18.5V9.5Z" fill="white" fill-opacity="0.42"/>
<path d="M16 6.5V4.5C16 3.39 15.11 2.5 14 2.5H10C8.89 2.5 8 3.39 8 4.5V6.5H2V19.5C2 20.61 2.89 21.5 4 21.5H20C21.11 21.5 22 20.61 22 19.5V6.5H16ZM10 4.5H14V6.5H10V4.5ZM20 19.5H4V8.5H20V19.5ZM9 9.5V18.5L16.5 13.5L9 9.5Z" fill="white" fill-opacity="1"/>
</g>
<defs>
<clipPath id="clip0_457_1018">
<rect width="24" height="24" fill="white" transform="translate(0 0.5)"/>
</clipPath>
</defs>
</svg>
