<svg width="24" height="25" viewBox="0 0 24 25" fill="none" xmlns="http://www.w3.org/2000/svg">
<g clip-path="url(#clip0_457_1024)">
<path opacity="0.3" d="M15.99 9.49996H19.42C18.6 7.49996 17 5.89996 15 5.07996V8.50996C15.37 8.78996 15.71 9.12996 15.99 9.49996ZM4 12.5C4 15.85 6.04 18.74 9 19.92V16.48C7.77 15.55 7 14.08 7 12.49C7 10.9 7.77 9.42996 9 8.49996V5.07996C6.04 6.25996 4 9.14996 4 12.5ZM15 16.49V19.92C17 19.1 18.6 17.5 19.42 15.5H15.99C15.71 15.87 15.37 16.21 15 16.49Z" fill="white" fill-opacity="0.42"/>
<path d="M14.82 11.5H21.95C21.48 6.78005 17.72 3.02005 13 2.55005V9.68005C13.85 9.99005 14.51 10.65 14.82 11.5ZM15 5.08005C17 5.90005 18.6 7.50005 19.42 9.50005H15.99C15.71 9.13005 15.37 8.79005 15 8.51005V5.08005ZM2 12.5C2 17.69 5.95 21.9501 11 22.4501V15.32C9.84 14.9 9 13.8 9 12.5C9 11.2 9.84 10.1 11 9.68005V2.55005C5.95 3.05005 2 7.31005 2 12.5ZM9 5.08005V8.52005C7.77 9.44005 7 10.91 7 12.5C7 14.09 7.77 15.56 9 16.49V19.93C6.04 18.74 4 15.85 4 12.5C4 9.15005 6.04 6.26005 9 5.08005ZM13 15.32V22.4501C17.72 21.9801 21.48 18.22 21.95 13.5H14.82C14.51 14.35 13.85 15.01 13 15.32ZM15 16.49C15.37 16.21 15.71 15.88 15.99 15.5H19.42C18.6 17.5 17 19.1 15 19.92V16.49Z" fill="white" fill-opacity="1"/>
</g>
<defs>
<clipPath id="clip0_457_1024">
<rect width="24" height="24" fill="white" transform="translate(0 0.5)"/>
</clipPath>
</defs>
</svg>
